<svg xmlns="http://www.w3.org/2000/svg" width="800" height="600" viewBox="0 0 800 600">
  <defs>
    <linearGradient id="ellipseBg" x1="0%" y1="0%" x2="100%" y2="100%">
      <stop offset="0%" style="stop-color:#0A0A0A"/>
      <stop offset="100%" style="stop-color:#1A1A2E"/>
    </linearGradient>
    <linearGradient id="ellipseAccent" x1="0%" y1="0%" x2="100%" y2="100%">
      <stop offset="0%" style="stop-color:#6366F1"/>
      <stop offset="100%" style="stop-color:#8B5CF6"/>
    </linearGradient>
  </defs>
  <rect width="800" height="600" fill="url(#ellipseBg)"/>
  <!-- Elliptical geometric pattern -->
  <ellipse cx="580" cy="260" rx="220" ry="160" fill="none" stroke="url(#ellipseAccent)" stroke-width="2" opacity="0.3"/>
  <ellipse cx="580" cy="260" rx="180" ry="130" fill="none" stroke="#6366F1" stroke-width="1" opacity="0.15" stroke-dasharray="8 6"/>
  <ellipse cx="580" cy="260" rx="140" ry="100" fill="none" stroke="#8B5CF6" stroke-width="1" opacity="0.1"/>
  <ellipse cx="580" cy="260" rx="100" ry="70" fill="#6366F1" opacity="0.08"/>
  <!-- Grid lines -->
  <line x1="0" y1="200" x2="800" y2="200" stroke="white" stroke-width="0.5" opacity="0.04"/>
  <line x1="0" y1="400" x2="800" y2="400" stroke="white" stroke-width="0.5" opacity="0.04"/>
  <line x1="300" y1="0" x2="300" y2="600" stroke="white" stroke-width="0.5" opacity="0.04"/>
  <!-- Text bars -->
  <rect x="60" y="180" width="340" height="14" rx="7" fill="white" opacity="0.9"/>
  <rect x="60" y="210" width="280" height="14" rx="7" fill="white" opacity="0.75"/>
  <rect x="60" y="250" width="220" height="14" rx="7" fill="white" opacity="0.5"/>
  <rect x="60" y="310" width="160" height="44" rx="22" fill="url(#ellipseAccent)" opacity="0.9"/>
  <circle cx="560" cy="300" r="4" fill="#6366F1" opacity="0.5"/>
  <circle cx="640" cy="220" r="3" fill="#8B5CF6" opacity="0.4"/>
  <circle cx="520" cy="180" r="2.5" fill="white" opacity="0.15"/>
  <circle cx="680" cy="340" r="3.5" fill="#6366F1" opacity="0.3"/>
  <text x="60" y="510" font-family="Arial,sans-serif" font-size="14" fill="white" opacity="0.35" font-weight="700">ELLIPSE • SAAS &amp; TECH TEMPLATE</text>
</svg>