<svg xmlns="http://www.w3.org/2000/svg" width="800" height="600" viewBox="0 0 800 600">
  <defs>
    <linearGradient id="bg" x1="0%" y1="0%" x2="100%" y2="100%">
      <stop offset="0%" style="stop-color:#EDE4DD"/>
      <stop offset="100%" style="stop-color:#D5CCC2"/>
    </linearGradient>
    <linearGradient id="accent" x1="0%" y1="0%" x2="100%" y2="0%">
      <stop offset="0%" style="stop-color:#FF0001"/>
      <stop offset="100%" style="stop-color:#CC0001"/>
    </linearGradient>
    <clipPath id="circleClip">
      <circle cx="600" cy="300" r="180"/>
    </clipPath>
  </defs>
  <rect width="800" height="600" fill="url(#bg)"/>
  <rect x="0" y="0" width="800" height="600" fill="url(#bg)"/>
  <!-- Geometric pattern -->
  <circle cx="600" cy="300" r="180" fill="none" stroke="#000" stroke-width="2" opacity="0.08"/>
  <circle cx="600" cy="300" r="140" fill="none" stroke="#FF0001" stroke-width="3" opacity="0.15"/>
  <circle cx="600" cy="300" r="100" fill="none" stroke="#000" stroke-width="1" opacity="0.06"/>
  <line x1="420" y1="300" x2="780" y2="300" stroke="#FF0001" stroke-width="1" opacity="0.12"/>
  <line x1="600" y1="120" x2="600" y2="480" stroke="#FF0001" stroke-width="1" opacity="0.12"/>
  <rect x="60" y="180" width="320" height="16" rx="8" fill="#000" opacity="0.85"/>
  <rect x="60" y="210" width="280" height="16" rx="8" fill="#000" opacity="0.75"/>
  <rect x="60" y="246" width="240" height="16" rx="8" fill="#000" opacity="0.5"/>
  <rect x="60" y="282" width="140" height="16" rx="8" fill="#FF0001" opacity="0.9"/>
  <rect x="60" y="340" width="180" height="48" rx="24" fill="#FF0001" opacity="0.95"/>
  <text x="60" y="510" font-family="Arial,sans-serif" font-size="14" fill="#000" opacity="0.4" font-weight="700">OUTFIT • CREATIVE STUDIO TEMPLATE</text>
</svg>